<svg xmlns="http://www.w3.org/2000/svg" viewBox="0 0 512 512">
  <defs>
    <linearGradient id="bg" x1="0%" y1="0%" x2="100%" y2="100%">
      <stop offset="0%" style="stop-color:#16a34a"/>
      <stop offset="100%" style="stop-color:#059669"/>
    </linearGradient>
  </defs>
  <rect width="512" height="512" rx="96" fill="url(#bg)"/>
  <g transform="translate(256, 240)" fill="white">
    <path d="M0-100 C-60-100 -100-60 -100 10 C-100 50 -70 90 0 120 C70 90 100 50 100 10 C100-60 60-100 0-100Z" opacity="0.2"/>
    <path d="M-50-30 L-50 50 C-50 50 -50 70 -30 70 L30 70 C50 70 50 50 50 50 L50-30 C50-40 40-50 30-50 L-30-50 C-40-50 -50-40 -50-30Z" fill="none" stroke="white" stroke-width="10" stroke-linejoin="round"/>
    <line x1="-25" y1="-10" x2="25" y2="-10" stroke="white" stroke-width="8" stroke-linecap="round"/>
    <line x1="-25" y1="15" x2="25" y2="15" stroke="white" stroke-width="8" stroke-linecap="round"/>
    <line x1="-25" y1="40" x2="10" y2="40" stroke="white" stroke-width="8" stroke-linecap="round"/>
    <path d="M-15-70 C-15-85 15-85 15-70 L15-50 L-15-50Z" fill="none" stroke="white" stroke-width="8" stroke-linejoin="round"/>
  </g>
</svg>
